# xmcd
#
# Track frame offsets:
#	150
#	14317
#	28846
#	48693
#	64393
#	77467
#	89064
#	102644
#	116378
#	130725
#	146087
#	158667
#	172104
#	184428
#	197053
#	208730
#	224842
#	236516
#
# Disc length: 3438 seconds
#
# Revision: 0
# Processed by: cddbd v1.4PL0 Copyright (c) Steve Scherf et al.
# Submitted via: audiograbber 1.81.02
#
DISCID=170d6c12
DTITLE=Various Artist - Blues - Warming By The Devil's Fire
DYEAR=2003
DGENRE=Blues
TTITLE0=Jelly Roll Morton - Turtle Twist
TTITLE1=Ma Rainey - See See Rider
TTITLE2=Son House - Death Letter
TTITLE3=Billie Holiday - I'm A Fool To Want You
TTITLE4=Mississippi John Hurt - Big Leg Blues
TTITLE5=Memphis Jug Band - K. C. Moon
TTITLE6=Robert Johnson - Sweet Home Chicago
TTITLE7=Tommy McClennan - Deep Blue Sea Blues
TTITLE8=Bessie Smith - Muddy Water
TTITLE9=Sonny Boy Williamson - Cross My Heart
TTITLE10=Dust My Broom - Dust My Broom
TTITLE11=Muddy Waters - You Can't Lose What You Ain't Never Had
TTITLE12=W.C. Handy - Beale Street Blues
TTITLE13=Charley Patton - Hang It On The Wall
TTITLE14=Sister Rosetta Tharpe - Up Above My Head (I Hear Music In The Air)
TTITLE15=Stephen James Taylor - Give Me Freedom
TTITLE16=Mildred Jones - Mr. Thrill
TTITLE17=John Lee Hooker - I'll Never Get Out Of These Blues Alive
EXTD=Martin Scorsese Presents: The Blues
EXTT0=
EXTT1=
EXTT2=
EXTT3=
EXTT4=
EXTT5=
EXTT6=
EXTT7=
EXTT8=
EXTT9=
EXTT10=
EXTT11=
EXTT12=
EXTT13=
EXTT14=
EXTT15=
EXTT16=
EXTT17=
PLAYORDER=
